inDegrees=no
num_controls=7
num_derivatives=13
num_iterations=122
num_multipliers=7
num_parameters=0
num_slacks=7
num_states=26
objective=0.446505
objective_accelerations=0.056216
objective_balance=0.003301
objective_effort=0.022097
objective_height=0.359367
objective_ligament=0.005525
solver_duration=1767.679146
status=Solve_Succeeded
success=true
DataType=double
version=3
OpenSimVersion=4.5
endheader
time	/jointset/ground_pelvis/pelvis_tilt/value	/jointset/ground_pelvis/pelvis_tx/value	/jointset/ground_pelvis/pelvis_ty/value	/jointset/hip_l/hip_flexion_l/value	/jointset/hip_l/hip_adduction_l/value	/jointset/hip_l/hip_rotation_l/value	/jointset/back/lumbar_extension/value	/jointset/patellofemoral_l/patellar_flexion_l/value	/jointset/knee_l/knee_flexion_l/value	/jointset/knee_l/knee_adduction_l/value	/jointset/knee_l/knee_rotation_l/value	/jointset/ankle_l/ankle_angle_l/value	/jointset/subtalar_l/subtalar_angle_l/value	/jointset/ground_pelvis/pelvis_tilt/speed	/jointset/ground_pelvis/pelvis_tx/speed	/jointset/ground_pelvis/pelvis_ty/speed	/jointset/hip_l/hip_flexion_l/speed	/jointset/hip_l/hip_adduction_l/speed	/jointset/hip_l/hip_rotation_l/speed	/jointset/back/lumbar_extension/speed	/jointset/patellofemoral_l/patellar_flexion_l/speed	/jointset/knee_l/knee_flexion_l/speed	/jointset/knee_l/knee_adduction_l/speed	/jointset/knee_l/knee_rotation_l/speed	/jointset/ankle_l/ankle_angle_l/speed	/jointset/subtalar_l/subtalar_angle_l/speed	/forceset/tau_hip_flexion_l	/forceset/tau_hip_adduction_l	/forceset/tau_hip_rotation_l	/forceset/tau_knee_flexion_l	/forceset/tau_ankle_angle_l	/forceset/tau_subtalar_angle_l	/forceset/tau_lumbar_extension	lambda_cid13_p0	lambda_cid13_p1	lambda_cid13_p2	lambda_cid13_p3	lambda_cid13_p4	lambda_cid13_p5	lambda_cid14_p0	/jointset/ground_pelvis/pelvis_tilt/accel	/jointset/ground_pelvis/pelvis_tx/accel	/jointset/ground_pelvis/pelvis_ty/accel	/jointset/hip_l/hip_flexion_l/accel	/jointset/hip_l/hip_adduction_l/accel	/jointset/hip_l/hip_rotation_l/accel	/jointset/back/lumbar_extension/accel	/jointset/patellofemoral_l/patellar_flexion_l/accel	/jointset/knee_l/knee_flexion_l/accel	/jointset/knee_l/knee_adduction_l/accel	/jointset/knee_l/knee_rotation_l/accel	/jointset/ankle_l/ankle_angle_l/accel	/jointset/subtalar_l/subtalar_angle_l/accel	gamma_cid13_p0	gamma_cid13_p1	gamma_cid13_p2	gamma_cid13_p3	gamma_cid13_p4	gamma_cid13_p5	gamma_cid14_p0
1	-0.5202293042743513	-0.06857112473440409	0.5842981415135746	1.775434763484562	-0.4702261402485131	0.009429370707882972	-0.2617749712268252	1.379836916124764	1.379836916124806	-0.08535427551314299	-0.1745224514080261	0.2455498032162277	0.001488344045384536	-0.02288326171645307	0.009173492001881913	0.00260276767602119	0.002979703066168529	-0.002847521464888128	0.003995724804122866	1.929989445329262e-05	-0.003439575018120799	-0.003439575018121436	-0.009240175549921539	-0.0002185514380781709	0.01539772827830036	0.005510445002282923	-0.3166652028521472	0.01957203529251132	-7.894001494129592e-05	-0.3111167473323152	0.02594831443247576	0.02912516380246789	0.2738470643313232	-31.29069180848188	-7.907293757830023	1.766562629940035	7.938248950536734	-639.3386938976784	-49.59355612075462	-1.513886179097319	1.451978870544537	0.2246090140521899	1.907805874780031	-6.581578595941455	-0.05052842919538245	-2.322962467014345	-0.01788366249505014	-5.26763349676461	-5.267633496764804	-0.5930119398038971	-0.0348836688230298	-0.8156305506332423	-0.5235096951612948	3.101524571701595e-09	1.464060953407877e-08	-6.731737052607055e-09	3.824134323917543e-09	-2.346381179305636e-09	2.107188156197883e-08	1.54297493242996e-09
1.01	-0.5203864385660492	-0.06846820835978551	0.5844194074280403	1.775136782667793	-0.4702561049492767	0.009351979493692691	-0.2617746964921641	1.379539308888664	1.379539308888611	-0.08547345733153722	-0.174525030372167	0.2456631929478201	0.001518774937356284	-0.008544260172225773	0.01141196187852153	0.021646082356779	-0.0625647071418035	-0.003135653759344136	-0.01946418223127237	3.680020921093677e-05	-0.05607854406209183	-0.05607854406209316	-0.01459126319797461	-0.0002828101487173538	0.00727614762861071	0.0005859038620258401	-0.3165938219682228	0.01966027102184705	-9.771684012337465e-05	-0.3109145805812571	0.02580707129571723	0.02915988134679062	0.2737889823209563	-31.32199399186931	-7.922810890356173	1.77579866148673	7.868455067537075	-639.1836593713857	-49.60734217499915	-1.520472208427606	1.424760226383629	0.2237939440420685	1.901941857890093	-6.539199637966945	-0.01649380552108802	-2.35604322627713	0.01173985414933799	-5.261527376620604	-5.261527376620553	-0.5054217082176681	0.009977409694870668	-0.8110317944880567	-0.4754063081081867	-4.711762670863378e-09	7.269709716431385e-09	3.707985980233622e-08	5.612542071597468e-09	-1.228844603006425e-08	6.651525631745046e-08	-9.937115796393136e-09
1.02	-0.5204002029563018	-0.068342841692486	0.5847309760079469	1.774183692267995	-0.4702886586081754	0.009040281528254151	-0.2617742121592207	1.378715412208441	1.378715412208296	-0.08564600293259256	-0.1745278170470349	0.2456952448784452	0.001500264420995387	0.005790718572873384	0.01366355053807108	0.04066330076418979	-0.1280422135394493	-0.003365313091814939	-0.0428656254456698	6.121955149403531e-05	-0.1086974638423542	-0.1086974638423546	-0.01991293208249385	-0.0002600935841870376	-0.0008698319151292302	-0.004277836664242881	-0.3165224410843077	0.01974850675118335	-0.0001164936653095851	-0.3107124138301993	0.0256658281589594	0.02919459889111459	0.2737309003105791	-31.35975177908461	-7.937156353670378	1.784800654567954	7.824324865022961	-639.1187563933956	-49.60001431526923	-1.537936262100723	1.45117431071894	0.2272327706341565	1.902586620110624	-6.568197833876212	-0.03883383679830814	-2.311269702814752	-0.01649985698998369	-5.263623644022875	-5.263623644022753	-0.5871281870971156	-0.01748861378906965	-0.820510329443327	-0.5113495723635954	-1.267188704260959e-08	-8.303705716684938e-10	8.063605961501822e-08	7.143477013113589e-09	-2.236424996637396e-08	1.113186608590873e-07	-2.147292570270363e-08
1.03	-0.5202705790025048	-0.06819487025036532	0.5852325152266513	1.772576282265405	-0.4703231229787027	0.008494975735623463	-0.2617734798437554	1.377365503538804	1.377365503538962	-0.08587158056249547	-0.1745298628092387	0.2456456445395467	0.001433505821399374	0.02013878900803519	0.01593517946935359	0.05963312577418454	-0.1934161043283659	-0.003507692021588537	-0.06617388694646324	8.38118682477674e-05	-0.1612734391463822	-0.1612734391463732	-0.02519309351295647	-0.0001252408025007597	-0.009061141826758391	-0.009054132090194837	-0.3161902464346145	0.01989678543287894	-0.0001692130525889205	-0.3103265832122318	0.02554868827289181	0.02929820547295315	0.2734911785249109	-31.36950460421656	-7.994794392250709	1.810380147431254	7.729043421711097	-638.7558150415884	-49.65413288455261	-1.566488923862371	1.427327761855262	0.2277959354539777	1.892461311703533	-6.518436124896421	0.001027837375583407	-2.337378404604838	0.01142402494609086	-5.252953161006661	-5.252953161005267	-0.4970468414559485	0.03257535087614156	-0.8200769667787786	-0.4578200825044076	-2.063350975240867e-08	-8.937891476813812e-09	1.241896533354323e-07	8.671784681097425e-09	-3.244141858723012e-08	1.561155350924198e-07	-3.300930417204971e-08
1.04	-0.5199973334739696	-0.06802404892271598	0.5859234088695074	1.770315843070225	-0.4703584175868398	0.007717232521804967	-0.2617725645553375	1.375490161378644	1.375490161379109	-0.08614967715078986	-0.1745298394183138	0.2455138039725806	0.00131957415658514	0.03451503352081495	0.01823352764380564	0.0785341855945607	-0.2586480520571628	-0.003531360613662492	-0.08935310968298663	9.78141425220981e-05	-0.2137841619469668	-0.2137841619469477	-0.03041672376082393	0.0001537370483311439	-0.01731787752863126	-0.01371244970788478	-0.3158580517849376	0.02004506411456982	-0.0002219324398831649	-0.3099407525942642	0.02543154838682445	0.02940181205478586	0.2732514567392259	-31.38573814710757	-8.0512230996799	1.83568161352736	7.659461827817543	-638.4833316459979	-49.68765194489966	-1.606403318985668	1.456809126242558	0.2325766192680524	1.888833582186904	-6.539809221852265	-0.01509176925836774	-2.285461949960732	-0.01821786548589934	-5.250573143334178	-5.250573143333924	-0.5758219505780777	0.01133640004007471	-0.8335954874920877	-0.4877540107111885	-2.767292597071256e-08	-1.496338305759922e-08	1.674935199718078e-07	1.073546569770636e-08	-4.18659063395767e-08	1.98139814820453e-07	-4.361707672431248e-08
